<svg xmlns="http://www.w3.org/2000/svg" viewBox="0 0 300 300">
    <path d="M221.872 83.41l-28.5 28.5-1 .9c9.9 10 16.1 23.7 16.1 39.2v57.7l-54.5.1c.4 0-1 .2-.4.2h-1.4c.5 0-1.1-.1-.4-.2-15.6.1-29.7-6.2-40-16.3l-67.3 67.2c27.9 28 66.6 45.3 109.3 45.1h153.2c-9.6-41.5-11.9-157.3-85.1-222.4z" fill="#194966" />
    <path d="M94.472 153.01c-.1-16.6 7-31.7 18.3-42.2l-67-67c-28.4 27.9-46 66.9-45.8 109.9.2 41.8 17.2 79.6 44.5 107l67.2-67.2c-10.6-10.3-17.1-24.6-17.2-40.5z" fill="#3FA9F5" />
    <path d="M150.972 95.71h2c15.7-.1 30 6 40.3 16.1l28.5-28.5c-36.4-32.4-90.2-52.2-171.1-44.2 26.9-24.2 62.5-39 101.5-39.2 42.3-.2 80.6 16.9 108.5 44.5-27.8-27.7-66.2-44.7-108.5-44.5-41.5.2-79 16.9-106.4 43.8l67 67c10-9.3 23.4-15 38.2-15.1z" fill="#A0E0FF" />
    <path d="M192.472 112.81l.9-.9c-10.4-10.1-24.6-16.2-40.3-16.1h-.8c15.7.2 30 6.6 40.2 17z" fill="#A0E0FF" />
    <path d="M306.972 305.81l-.8-153.8h-.1c-.3-42-17.6-79.9-45.3-107.5l-38.8 38.8c73.1 65.1 75.5 180.9 85.1 222.4z" fill="#12374C" />
    <path d="M152.172.01c-39 .2-74.6 15-101.5 39.2 80.9-8 134.8 11.8 171.1 44.2l38.8-38.8c-27.8-27.7-66.2-44.7-108.5-44.5z" fill="#78A8C0" />
</svg>
