<?xml version="1.0" encoding="utf-8"?>
<!-- Generator: Adobe Illustrator 19.1.0, SVG Export Plug-In . SVG Version: 6.00 Build 0)  -->
<svg version="1.1" id="Layer_1" xmlns="http://www.w3.org/2000/svg" xmlns:xlink="http://www.w3.org/1999/xlink" x="0px" y="0px"
	 viewBox="323 -108.6 406.1 227.1" style="enable-background:new 323 -108.6 406.1 227.1;" xml:space="preserve">
<path d="M705.2-60.5H346.8c-13.1,0-23.8-10.6-23.8-23.8v-0.5c0-13.1,10.6-23.8,23.8-23.8h358.5c13.1,0,23.8,10.6,23.8,23.8v0.5
	C729-71.1,718.4-60.5,705.2-60.5z"/>
<path d="M705.2,27.5H346.8c-13.1,0-23.8-10.6-23.8-23.8V3.2c0-13.1,10.6-23.8,23.8-23.8h358.5c13.1,0,23.8,10.6,23.8,23.8v0.5
	C729,16.9,718.4,27.5,705.2,27.5z"/>
<path d="M705.2,118.5H346.8c-13.1,0-23.8-10.6-23.8-23.8v-0.5c0-13.1,10.6-23.8,23.8-23.8h358.5c13.1,0,23.8,10.6,23.8,23.8v0.5
	C729,107.9,718.4,118.5,705.2,118.5z"/>
</svg>
