<?xml version="1.0" encoding="utf-8"?>
<!-- Generator: Adobe Illustrator 19.1.0, SVG Export Plug-In . SVG Version: 6.00 Build 0)  -->
<svg version="1.1" id="Layer_1" xmlns="http://www.w3.org/2000/svg" xmlns:xlink="http://www.w3.org/1999/xlink" x="0px" y="0px"
	 viewBox="-42 44 88 66" style="enable-background:new -42 44 88 66;" xml:space="preserve">
<style type="text/css">
	.st0{fill:#003876;}
</style>
<g>
	<path class="st0" d="M43.9,46.1c-1.3-1.3-3-2.1-4.9-2.1h-74c-1.9,0-3.7,0.8-4.9,2.1c-1.3,1.3-2.1,3-2.1,4.9v52
		c0,1.9,0.8,3.7,2.1,4.9c1.3,1.3,3,2.1,4.9,2.1h74c1.9,0,3.7-0.8,4.9-2.1c1.3-1.3,2.1-3,2.1-4.9V51C46,49.1,45.2,47.3,43.9,46.1z
		 M40,99.4L16.2,77.5L40,55.6V99.4z M-35,50h74c0.3,0,0.5,0.1,0.7,0.3c0,0,0,0,0,0.1l-33,30.4c-1,1-2.5,1.5-3.9,1.5S0,81.8-1,80.9
		l-34.8-30.5l0,0C-35.5,50.1-35.3,50-35,50z M-36,99.6V55.4l25.1,22.1L-36,99.6z M-35,104l27.1-23.8l4.2,3.7
		c1.8,1.6,4.1,2.4,6.4,2.4c2.4,0,4.8-0.8,6.6-2.5l3.8-3.5L39,104l0,0H-35z"/>
</g>
</svg>
